REM MD5 0063a61cb61c01266afd8ac1fc2d9a80
FILE "South Park Rally (Europe) (En,Fr,De,Es).bin" BINARY
  TRACK 01 MODE2/2352
    INDEX 01 00:00:00
  TRACK 02 AUDIO
    INDEX 00 07:51:26
    INDEX 01 07:53:26
  TRACK 03 AUDIO
    INDEX 00 11:30:06
    INDEX 01 11:32:06
  TRACK 04 AUDIO
    INDEX 00 14:53:15
    INDEX 01 14:55:15
  TRACK 05 AUDIO
    INDEX 00 19:03:40
    INDEX 01 19:05:40
  TRACK 06 AUDIO
    INDEX 00 22:33:71
    INDEX 01 22:35:71
  TRACK 07 AUDIO
    INDEX 00 26:07:73
    INDEX 01 26:09:73
  TRACK 08 AUDIO
    INDEX 00 29:39:63
    INDEX 01 29:41:63
  TRACK 09 AUDIO
    INDEX 00 33:14:33
    INDEX 01 33:16:33
  TRACK 10 AUDIO
    INDEX 00 36:54:62
    INDEX 01 36:56:62
  TRACK 11 AUDIO
    INDEX 00 37:26:34
    INDEX 01 37:28:34
  TRACK 12 AUDIO
    INDEX 00 38:00:65
    INDEX 01 38:02:65
  TRACK 13 AUDIO
    INDEX 00 38:36:64
    INDEX 01 38:38:64
  TRACK 14 AUDIO
    INDEX 00 39:07:02
    INDEX 01 39:09:02
  TRACK 15 AUDIO
    INDEX 00 39:28:48
    INDEX 01 39:30:48
  TRACK 16 AUDIO
    INDEX 00 39:56:07
    INDEX 01 39:58:07
  TRACK 17 AUDIO
    INDEX 00 40:43:58
    INDEX 01 40:45:58
  TRACK 18 AUDIO
    INDEX 00 41:14:71
    INDEX 01 41:16:71
  TRACK 19 AUDIO
    INDEX 00 41:42:52
    INDEX 01 41:44:52
  TRACK 20 AUDIO
    INDEX 00 42:13:53
    INDEX 01 42:15:53
  TRACK 21 AUDIO
    INDEX 00 42:34:30
    INDEX 01 42:36:30
  TRACK 22 AUDIO
    INDEX 00 42:49:09
    INDEX 01 42:51:09
  TRACK 23 AUDIO
    INDEX 00 43:11:30
    INDEX 01 43:13:30
  TRACK 24 AUDIO
    INDEX 00 43:19:30
    INDEX 01 43:21:30
  TRACK 25 AUDIO
    INDEX 00 43:42:49
    INDEX 01 43:44:49
  TRACK 26 AUDIO
    INDEX 00 44:08:53
    INDEX 01 44:10:53
  TRACK 27 AUDIO
    INDEX 00 44:17:51
    INDEX 01 44:19:51
  TRACK 28 AUDIO
    INDEX 00 44:25:13
    INDEX 01 44:27:13
  TRACK 29 AUDIO
    INDEX 00 44:32:19
    INDEX 01 44:34:19
  TRACK 30 AUDIO
    INDEX 00 44:39:72
    INDEX 01 44:41:72
  TRACK 31 AUDIO
    INDEX 00 44:48:47
    INDEX 01 44:50:47
  TRACK 32 AUDIO
    INDEX 00 44:55:41
    INDEX 01 44:57:41
  TRACK 33 AUDIO
    INDEX 00 45:01:20
    INDEX 01 45:03:20
  TRACK 34 AUDIO
    INDEX 00 45:09:30
    INDEX 01 45:11:30
  TRACK 35 AUDIO
    INDEX 00 45:16:12
    INDEX 01 45:18:12
  TRACK 36 AUDIO
    INDEX 00 45:21:23
    INDEX 01 45:23:23
  TRACK 37 AUDIO
    INDEX 00 45:27:19
    INDEX 01 45:29:19
  TRACK 38 AUDIO
    INDEX 00 45:35:52
    INDEX 01 45:37:52
  TRACK 39 AUDIO
    INDEX 00 45:42:18
    INDEX 01 45:44:18
  TRACK 40 AUDIO
    INDEX 00 45:50:31
    INDEX 01 45:52:31
  TRACK 41 AUDIO
    INDEX 00 45:58:68
    INDEX 01 46:00:68
  TRACK 42 AUDIO
    INDEX 00 46:08:00
    INDEX 01 46:10:00
  TRACK 43 AUDIO
    INDEX 00 46:16:13
    INDEX 01 46:18:13
  TRACK 44 AUDIO
    INDEX 00 46:25:00
    INDEX 01 46:27:00
  TRACK 45 AUDIO
    INDEX 00 46:32:65
    INDEX 01 46:34:65
  TRACK 46 AUDIO
    INDEX 00 46:41:27
    INDEX 01 46:43:27
  TRACK 47 AUDIO
    INDEX 00 46:49:05
    INDEX 01 46:51:05
  TRACK 48 AUDIO
    INDEX 00 46:56:61
    INDEX 01 46:58:61
  TRACK 49 AUDIO
    INDEX 00 47:05:19
    INDEX 01 47:07:19
  TRACK 50 AUDIO
    INDEX 00 47:16:01
    INDEX 01 47:18:01
  TRACK 51 AUDIO
    INDEX 00 47:23:32
    INDEX 01 47:25:32
  TRACK 52 AUDIO
    INDEX 00 47:31:62
    INDEX 01 47:33:62
  TRACK 53 AUDIO
    INDEX 00 47:40:17
    INDEX 01 47:42:17
  TRACK 54 AUDIO
    INDEX 00 47:48:39
    INDEX 01 47:50:39
  TRACK 55 AUDIO
    INDEX 00 47:56:14
    INDEX 01 47:58:14
  TRACK 56 AUDIO
    INDEX 00 48:05:48
    INDEX 01 48:07:48
  TRACK 57 AUDIO
    INDEX 00 48:13:53
    INDEX 01 48:15:53
  TRACK 58 AUDIO
    INDEX 00 48:21:56
    INDEX 01 48:23:56
  TRACK 59 AUDIO
    INDEX 00 48:30:22
    INDEX 01 48:32:22
  TRACK 60 AUDIO
    INDEX 00 48:38:65
    INDEX 01 48:40:65
  TRACK 61 AUDIO
    INDEX 00 49:01:71
    INDEX 01 49:03:71
  TRACK 62 AUDIO
    INDEX 00 49:10:27
    INDEX 01 49:12:27
  TRACK 63 AUDIO
    INDEX 00 49:18:29
    INDEX 01 49:20:29
  TRACK 64 AUDIO
    INDEX 00 49:25:58
    INDEX 01 49:27:58
  TRACK 65 AUDIO
    INDEX 00 49:33:55
    INDEX 01 49:35:55
  TRACK 66 AUDIO
    INDEX 00 49:43:34
    INDEX 01 49:45:34
  TRACK 67 AUDIO
    INDEX 00 49:50:63
    INDEX 01 49:52:63
  TRACK 68 AUDIO
    INDEX 00 50:00:43
    INDEX 01 50:02:43
  TRACK 69 AUDIO
    INDEX 00 50:10:33
    INDEX 01 50:12:33
  TRACK 70 AUDIO
    INDEX 00 50:19:01
    INDEX 01 50:21:01
  TRACK 71 AUDIO
    INDEX 00 50:27:14
    INDEX 01 50:29:14
  TRACK 72 AUDIO
    INDEX 00 50:35:68
    INDEX 01 50:37:68
  TRACK 73 AUDIO
    INDEX 00 50:44:12
    INDEX 01 50:46:12
  TRACK 74 AUDIO
    INDEX 00 50:54:09
    INDEX 01 50:56:09
  TRACK 75 AUDIO
    INDEX 00 51:02:72
    INDEX 01 51:04:72
  TRACK 76 AUDIO
    INDEX 00 54:04:72
    INDEX 01 54:06:72
REM LEADOUT 57:07:22
